<svg xmlns="http://www.w3.org/2000/svg" width="148" height="28" viewBox="0 0 148 28">
  <defs>
    <linearGradient id="minimalBg" x1="0%" y1="0%" x2="100%" y2="0%">
      <stop offset="0%" style="stop-color:#475569;stop-opacity:1" />
      <stop offset="100%" style="stop-color:#64748b;stop-opacity:1" />
    </linearGradient>
    <filter id="subtleShadow">
      <feDropShadow dx="0" dy="1" stdDeviation="2" flood-color="#1e293b" flood-opacity="0.15"/>
    </filter>
  </defs>
  
  <!-- Main background -->
  <rect x="0" y="0" width="148" height="28" rx="8" ry="8" fill="url(#minimalBg)" filter="url(#subtleShadow)"/>
  
  <!-- Subtle inner light -->
  <rect x="0.5" y="0.5" width="147" height="27" rx="7.5" ry="7.5" fill="none" stroke="rgba(255,255,255,0.08)" stroke-width="0.5"/>
  
  <!-- Icon background -->
  <circle cx="14" cy="14" r="8" fill="rgba(255,255,255,0.06)"/>
  
  <!-- Simplified OpenPledge Logo -->
  <g transform="translate(8.5, 8.5) scale(0.025, 0.025)">
    <path fill="#7dd3fc" d="M164.2,161.6c4.9-14.9,10.8-26.6,17.5-35.1s14.9-14.4,24.6-17.9c9.7-3.4,21.3-5,34.7-4.7
      c13.8,0.3,24.9,1.9,33.3,4.8c8.4,2.9,14.4,7.8,18.1,14.8c3.7,7,5.4,17.2,5.1,30.7c-0.2,8.1-1.2,18.8-3,32.2
      c-0.7,4.8-1.4,9.7-2.1,14.6l112.9,3.6c0.3-2.3,0.6-4.7,0.9-7c1.9-16.1,3-30.1,3.3-42c0.7-31.1-2.6-56.5-10.1-76.1
      c-7.4-19.6-18-34.8-31.5-45.7c-13.6-10.9-29.7-18.5-48.2-22.7C301.1,6.9,280.9,4.5,259,4c-32.7-0.7-61.1,2-85.3,8.1
      c-24.2,6.2-45,16.8-62.4,31.7c-17.5,15-32,35.3-43.5,61c-10.7,23.8-19.4,53.3-26.3,88.2l113.5,3.6
      C157.8,183.2,160.9,171.5,164.2,161.6z"/>
    <path fill="#a855f7" opacity="0.8" d="M328.4,201c-1.4,8.9-2.9,18-4.6,27.3c-3.1,18.4-6.9,34.4-11.2,48.2c-4.3,13.7-9.8,25.1-16.4,34.2
      c-6.6,9.1-14.8,15.8-24.7,20.2c-9.9,4.4-22,6.4-36.2,6.1c-14.2-0.3-25.7-2-34.5-5.1c-8.8-3.1-15-8-18.7-14.8
      c-3.7-6.8-5.4-16-5.1-27.5c0.2-7.7,1.2-18,3-31.1c1.8-13,4.1-26.4,6.7-40.2c1.3-7.7,2.7-14.9,4.2-21.7L77.5,193
      c-0.5,2.8-1.1,5.5-1.6,8.3c-3,15.3-5.5,31.1-7.4,47.4c-1.9,16.3-3,31-3.3,44c-0.7,29.2,2.5,53.1,9.6,71.7
      c7.1,18.6,17.4,33.2,31,43.7c13.6,10.5,29.8,17.9,48.5,22.2c18.7,4.3,39.3,6.7,61.6,7.2c32.7,0.7,61.2-1.4,85.5-6.4
      c24.3-5,45.1-14.4,62.4-28.3c17.2-13.8,31.6-33.5,43.2-59c11.5-25.5,20.8-58.3,27.9-98.6c2.6-13.4,4.8-27,6.5-40.7L328.4,201z"/>
  </g>
  
  <!-- Text with Inter font styling -->
  <text x="28" y="18.5" font-family="Inter, system-ui, -apple-system, sans-serif" font-size="11" font-weight="500" fill="#f1f5f9" letter-spacing="0.02em">
    OpenPledge
  </text>
</svg>